<?xml version="1.0" encoding="UTF-8"?>
<svg id="Layer_1" data-name="Layer 1" xmlns="http://www.w3.org/2000/svg" viewBox="0 0 137 53.31">
  <defs>
    <style>
      .cls-1 {
        fill: #059dd9;
        stroke-width: 0px;
      }

      .cls-2 {
        letter-spacing: -.06em;
      }

      .cls-3 {
        font-family: SacreBleuMVB-Regular, 'Sacre Bleu MVB';
        font-size: 9.5px;
      }

      .cls-3, .cls-4 {
        fill: #fff;
      }

      .cls-4 {
        font-family: MostraNuova, 'Mostra Nuova';
        font-size: 17.94px;
      }

      .cls-5 {
        letter-spacing: -.03em;
      }

      .cls-6 {
        letter-spacing: 0em;
      }

      .cls-7 {
        letter-spacing: -.02em;
      }

      .cls-8 {
        letter-spacing: 0em;
      }
    </style>
  </defs>
  <path class="cls-1" d="M31.52,42.23c-1.73,0-2.64.44-3.45.83-.77.37-1.43.69-2.85.69s-2.08-.32-2.85-.69c-.8-.39-1.72-.83-3.45-.83s-2.65.44-3.45.83c-.77.37-1.43.69-2.85.69s-2.08-.32-2.86-.69c-.81-.39-1.72-.83-3.45-.83s-2.65.44-3.45.83c-.77.37-1.44.69-2.86.69v1.37c1.73,0,2.65-.44,3.45-.83.77-.37,1.44-.69,2.86-.69s2.08.32,2.86.69c.81.39,1.72.83,3.45.83s2.64-.44,3.45-.83c.77-.37,1.44-.69,2.85-.69s2.08.32,2.85.69c.8.39,1.72.83,3.45.83s2.64-.44,3.45-.83c.77-.37,1.43-.69,2.85-.69s2.08.32,2.85.69c.81.39,1.72.83,3.45.83v-1.37c-1.42,0-2.08-.32-2.85-.69-.8-.39-1.72-.83-3.45-.83Z"/>
  <path class="cls-1" d="M35.2,38.15c-.46-.22-.95-.45-1.61-.62.74-1.83,1.12-3.78,1.12-5.78,0-4.07-1.57-7.9-4.37-10.77-.23.41-.51.78-.83,1.11,2.45,2.61,3.83,6.03,3.83,9.66,0,.77-.06,1.54-.18,2.29l-6.98-6.66-5.12,4.71-6.68-6.98-9.24,8.92c-.04-.24-.07-.48-.1-.72,0,0-.09-.78-.09-1.56,0-.34.12-4.38,2.79-8.06.57-.78,4.52-6.03,11.4-6.09,5.92-.05,9.7,3.79,10.36,4.48.16-.16.32-.35.49-.58.14-.19.25-.37.34-.53-.78-.79-4.86-4.77-11.19-4.74-7.68.03-12.08,5.92-12.6,6.64-2.44,3.38-2.96,7.07-2.97,8.87,0,1.84.43,3.63.43,3.63.18.73.41,1.45.69,2.15-.66.16-1.15.4-1.61.62-.77.37-1.44.69-2.86.69v1.37c1.73,0,2.65-.44,3.45-.83.77-.37,1.44-.69,2.86-.69s2.08.32,2.86.69c.81.39,1.72.83,3.45.83s2.64-.44,3.45-.83c.77-.37,1.44-.69,2.85-.69s2.08.32,2.85.69c.8.39,1.72.83,3.45.83s2.64-.44,3.45-.83c.77-.37,1.43-.69,2.85-.69s2.08.32,2.85.69c.81.39,1.72.83,3.45.83v-1.37c-1.42,0-2.08-.32-2.85-.69ZM28.31,38.15c-.77.37-1.43.69-2.85.69s-2.08-.32-2.85-.69c-.8-.39-1.72-.83-3.45-.83s-2.65.44-3.45.83c-.77.37-1.43.69-2.85.69s-2.08-.32-2.86-.69c-.81-.39-1.72-.83-3.45-.83-.15,0-.29,0-.43.01-.25-.57-.46-1.15-.63-1.74l8.86-8.54,8.42,8.8.99-.94-1.75-1.83,4.15-3.83,6.65,6.35c-.17.59-.38,1.17-.63,1.74-.14,0-.28-.01-.43-.01-1.73,0-2.64.44-3.45.83Z"/>
  <text class="cls-4" transform="translate(40.35 36.78)"><tspan class="cls-5" x="0" y="0">K</tspan><tspan x="7.61" y="0">osa </tspan><tspan class="cls-2" x="35.9" y="0">T</tspan><tspan class="cls-6" x="41.98" y="0">r</tspan><tspan x="46.22" y="0">a</tspan><tspan class="cls-6" x="55.64" y="0">v</tspan><tspan x="62.02" y="0">el</tspan></text>
  <text class="cls-3" transform="translate(42.15 44.75)"><tspan x="0" y="0">mot vi</tspan><tspan class="cls-8" x="24.38" y="0">d</tspan><tspan x="29.11" y="0">a </tspan><tspan class="cls-7" x="36.4" y="0">v</tspan><tspan x="40.74" y="0">yer</tspan></text>
</svg>